<?xml version="1.0" encoding="utf-8"?>
<!-- Generator: Adobe Illustrator 24.3.0, SVG Export Plug-In . SVG Version: 6.00 Build 0)  -->
<svg version="1.1" id="Layer_1" xmlns="http://www.w3.org/2000/svg" xmlns:xlink="http://www.w3.org/1999/xlink" x="0px" y="0px"
	 viewBox="0 0 166.4 60" style="enable-background:new 0 0 166.4 60;" xml:space="preserve">
<style type="text/css">
	.st0{fill:#1E1E1C;}
	.st1{fill:#018796;}
	.st2{fill:#86B826;}
</style>
<g>
	<path class="st0" d="M38.4,35.5c0.2-0.4,0.4-0.7,0.5-0.7c0.7,0.4,1.1,0.7,1.3,0.8l0.6-0.9l-1.4-1c-0.3,0.5-0.4,0.7-0.5,0.8
		c-0.6-0.3-1-0.6-1.3-0.8l-0.6,1.1c0.2,0.1,0.4,0.2,0.7,0.4C38,35.3,38.2,35.4,38.4,35.5"/>
	<path class="st0" d="M79.6,36.4c0.3-0.5,0.5-1,0.7-1.5c-0.4-0.2-0.8-0.4-1-0.5c-0.1-0.1-0.1-0.2-0.1-0.3l0-0.2c0-0.1,0-0.2,0-0.3
		H79c-0.4,0.6-0.6,1.1-0.8,1.4c0,0.1-0.1,0.2-0.1,0.3c0,0.1,0,0.2,0.1,0.2c0.1,0.1,0.2,0.2,0.3,0.3c0.2,1.3,0.3,2.4,0.4,3.1
		c0,0.2,0.1,0.6,0.1,1c0.1,0.7,0.1,1.1,0.1,1.3c0,0.2,0,0.3,0,0.4c0,0,0,0.1,0,0.1c-0.3,0-1.2,0-3,0h-0.6c0-0.1,0.2-0.3,0.3-0.6
		c0.1-0.2,0.2-0.4,0.2-0.4c0-0.5-0.4-1.1-1.2-1.5c-0.7-0.4-1.3-0.7-1.8-0.7c-0.7,0-1.8,0.4-3.2,1.3c-1.7,1-2.8,1.7-3.5,1.9h-0.8v0
		c-0.3,0-0.6-0.1-0.6-0.2c0.2-0.2,0.3-0.7,0.4-1.2c0-0.4,0.1-0.7,0.1-1.1c-0.4,0.4-0.8,0.8-1.1,1.2c0,0.2,0,0.5,0,0.7
		c0,0.4-0.2,0.6-0.4,0.6h-2v0h-7c-0.2,0-0.3-0.1-0.4-0.3c0-0.1,0-0.1,0-0.2c0,0,0-0.1,0-0.2c0.3-0.1,0.6-0.2,0.9-0.3
		c0.2,0,0.3-0.1,0.4-0.1h1.1l0.5-1.3h-0.7c-0.4,0-0.7,0-0.9-0.1c-1.4-0.3-2.4-0.6-3.1-0.8c-0.3-0.1-0.5-0.1-0.8-0.1
		c-0.2,0-0.4,0-0.4,0c-0.2,0.1-0.4,0.1-0.5,0.2c-0.3,0.2-0.6,0.6-0.8,1.1c-0.1,0.2-0.1,0.4-0.1,0.4v0.2c0.1,0,0.3-0.2,0.5-0.4
		c0.2-0.1,0.4-0.2,0.6-0.2c0,0,0.1,0,0.1-0.1c0.1,0,0.1,0,0.2,0c0.4,0,1.2,0.2,2.7,0.6c-0.6,0.5-1.2,0.9-1.8,1.1
		c-0.4,0.1-0.8,0.2-1.1,0.2h-8.9c-0.4,0-0.6-0.1-0.8-0.3c0-0.1-0.1-0.1-0.1-0.2c-0.3-2.4-0.5-4.1-0.6-5.3c-0.5,0.6-0.8,1-0.8,1.1
		c0,0.3,0,0.6,0,0.7c-0.1,0.1-0.5,0.2-1,0.4c-0.4,0.1-0.7,0.3-0.9,0.5c-0.6,0.6-1,1.4-1.2,2.4c0.2,0.2,0.4,0.3,0.7,0.4
		c0.1,0.1,0.3,0.1,0.6,0.2c0.9,0.3,1.4,0.4,1.5,0.4c0.1,0,0.2,0,0.2-0.1c0.1-0.2,0.2-0.3,0.2-0.5c0.1-0.2,0.3-0.4,0.4-0.4
		c0.1,0.1,0.1,0.2,0.1,0.4c0.1,0.6,0.1,0.9,0.2,1c0.1,0.2,0.3,0.4,0.5,0.5c0.1,0.1,0.2,0.1,0.3,0.1h10c0.1,0,0.2,0,0.3-0.1
		c0.5-0.3,0.8-0.5,1-0.7c0.4-0.3,0.8-0.6,1-0.8c0.1,0.7,0.2,1.1,0.3,1.2c0.1,0.2,0.2,0.4,0.4,0.4h9.2c0.1,0,0.3-0.1,0.6-0.4
		c0.1,0.2,0.2,0.3,0.3,0.4h14.8c0.2-0.2,0.3-0.5,0.3-0.9c0-0.3,0.1-0.6,0.1-0.9c0-0.2,0.1-0.5,0.1-0.7L79.6,36.4L79.6,36.4z
		 M39.8,40.6c-0.1,0-0.3,0-0.5-0.1c-0.2,0-0.5-0.1-0.9-0.3c-0.2-0.1-0.4-0.2-0.6-0.4c0.2-0.1,0.5-0.3,0.9-0.4
		c0.4-0.1,0.7-0.3,0.8-0.4c0.2-0.3,0.4-0.5,0.5-0.8l0.4,2.3H39.8z M74.6,41.6c-0.1,0.1-0.2,0.1-0.3,0.1h-6.3
		c0.7-0.4,1.4-0.8,2.1-1.2c0.9-0.5,1.6-0.7,2.2-0.7c0.3,0,0.6,0,0.8,0.1c0.1,0,0.4,0.2,0.8,0.5c0.5,0.4,0.7,0.7,0.7,0.9
		C74.8,41.4,74.7,41.5,74.6,41.6"/>
	<path class="st0" d="M82,34.8l0.8,8.2c0.4-0.9,0.6-1.6,0.6-2.3l-0.4-8C82.3,33.7,82,34.4,82,34.8"/>
	<path class="st1" d="M166.4,28.9c-14.5-3.2-26-14.5-29.4-28.9h-0.4v18.3c0,6,4.8,10.8,10.8,10.8h19.1V28.9z"/>
	<path class="st0" d="M4.3,48.5L3,47.7c-0.3,0.5-0.5,0.8-0.6,1.1c0.6,0.4,1.1,0.6,1.4,0.8C4,49,4.1,48.8,4.2,48.8
		c0.6,0.4,1,0.6,1.2,0.7c0-0.1,0.1-0.2,0.3-0.5c0.1-0.2,0.2-0.5,0.2-0.5l-1.3-0.7C4.5,48.1,4.4,48.3,4.3,48.5 M17.2,45.6l1.4,0.9
		c0.4-0.6,0.6-1,0.6-1.1c-0.9-0.5-1.4-0.8-1.4-0.8C17.7,44.8,17.5,45.2,17.2,45.6 M19.5,38.1c-0.4,0.9-0.6,1.3-0.6,1.3
		c0.5,1.2,0.8,1.9,0.8,2.1c0,0.1,0,0.1,0,0.1H5.3c-0.3,0.6-0.5,1-0.7,1.3c0.1,0.1,0.5,0.1,1,0.2c0.5,0,0.9,0.1,1.1,0.2
		c0.4,0.2,0.6,0.5,0.6,0.9c-0.3,0.2-0.7,0.4-1.1,0.6c-0.5,0.2-1.1,0.3-1.9,0.4c-0.6,0-0.9,0-0.9,0c-1.6,0-2.5-0.6-2.5-1.8
		c0-0.3,0.2-0.8,0.5-1.6c0.3-0.7,0.5-1.1,0.5-1.1v-0.2c0,0-0.1,0-0.1,0c-0.4,0.4-0.7,0.9-1,1.7c-0.3,0.8-0.5,1.5-0.5,2.1
		c0,0.8,0.3,1.4,0.8,1.8c0.5,0.4,1.1,0.5,1.8,0.5c0.5,0,1.1-0.1,1.7-0.2c1-0.3,1.9-0.6,2.6-1c0.1-0.1,0.1-0.2,0.2-0.3
		c0.6-1,1-1.7,1.3-2.2H20c0.3-1.1,0.4-1.8,0.4-2.1c0-0.3-0.1-0.8-0.3-1.5C19.9,38.8,19.6,38.3,19.5,38.1 M31.5,38.1
		c-0.4,0.9-0.6,1.3-0.6,1.3c0.5,1.2,0.8,1.9,0.8,2.1c0,0.1,0,0.1,0,0.1h-2.8v0c0,0,0,0,0,0h-0.6v0c0,0,0,0,0,0
		c-0.3-0.5-0.6-1.2-0.7-2.4c-0.2-1.3-0.3-2.1-0.5-2.6c-0.1,0.1-0.2,0.4-0.4,0.7c-0.2,0.3-0.3,0.5-0.3,0.7l0.7,2.7
		c-0.1,0.5-0.2,0.8-0.5,0.8c-0.7,0.2-1.4,0.3-2,0.3c-0.4,0-0.8,0-1.1-0.1c-0.1-0.1-0.2-0.1-0.2-0.2c0-0.1-0.1-0.2-0.1-0.3
		c0-0.4-0.1-0.6-0.1-0.6c-0.3,0.9-0.5,1.6-0.5,1.9c0,0.1,0,0.2,0.1,0.4c0.1,0.1,0.1,0.1,0.2,0.1c0.3,0.1,0.6,0.1,1,0.1
		c0.5,0,1.1,0,1.8-0.1c0.6-0.1,0.9-0.2,1-0.2c0.4-0.5,0.6-0.9,0.7-1.2c0,0,0.1,0.2,0.3,0.6c0.1,0.3,0.2,0.4,0.4,0.5
		c0.2,0.1,0.3,0.1,0.3,0.1h3.9c0.3-1.1,0.4-1.8,0.4-2.1c0-0.3-0.1-0.8-0.3-1.5C31.9,38.8,31.7,38.3,31.5,38.1 M29.3,45.6l1.4,0.9
		c0.4-0.6,0.6-1,0.6-1.1c-0.9-0.5-1.4-0.8-1.4-0.8C29.7,44.8,29.5,45.2,29.3,45.6 M89.8,35.5c0.2-0.4,0.4-0.7,0.5-0.7
		c0.7,0.4,1.1,0.7,1.3,0.8l0.6-0.9l-1.4-0.9c-0.3,0.4-0.4,0.7-0.5,0.8c-0.6-0.3-1-0.6-1.3-0.8l-0.6,1.1c0.2,0.1,0.4,0.2,0.7,0.4
		C89.4,35.3,89.6,35.4,89.8,35.5 M100.7,35.5c0.2,0.1,0.5,0.1,0.7,0.2c-0.2,0.2-0.4,0.3-0.6,0.5c-0.4,0.3-0.5,0.6-0.5,0.7
		c0,0,0,0.1,0.1,0.1c1.1-0.8,2.1-1.3,3.1-1.4c0.2-0.3,0.3-0.5,0.4-0.7h-1.5c-1.1-0.1-1.6-0.3-1.6-0.5c0-0.2,0.1-0.3,0.4-0.5
		c0.2-0.2,0.5-0.3,0.7-0.3c0.2,0,0.5,0.1,0.7,0.3c0.2-0.4,0.3-0.6,0.3-0.5c0-0.1-0.1-0.2-0.2-0.3c-0.2-0.1-0.3-0.2-0.3-0.2
		c-0.5,0-0.9,0.2-1.4,0.8c-0.4,0.5-0.7,1-0.7,1.5C100.2,35.3,100.4,35.4,100.7,35.5 M106.7,45.1c-0.7-0.5-1.2-0.7-1.4-0.9
		c-0.2,0.2-0.4,0.6-0.6,1.1l1.5,0.8c0.2-0.3,0.3-0.6,0.4-0.7c0.6,0.3,1.1,0.6,1.4,0.8c0.2-0.2,0.3-0.6,0.6-1.1
		c-0.8-0.5-1.3-0.8-1.4-0.8C107,44.7,106.8,44.9,106.7,45.1 M130.1,40.1c-0.4-0.8-1.3-1.8-2.8-3.1c-0.3-0.2-0.4-0.3-0.5-0.3
		c-0.1,0-0.2,0.2-0.4,0.5c-0.2,0.3-0.2,0.5-0.2,0.6c0,0.2,0,0.3,0,0.5c-0.5,0.5-1,1.3-1.4,2.2c0,0.1-0.1,0.3-0.2,0.7
		c-0.1,0.3-0.1,0.5-0.2,0.5h-16.3c0-0.1,0-0.3,0-0.5c0-0.2,0-0.3,0-0.3v-1.2c0,0,0-0.2-0.1-0.5c0-0.3-0.1-0.5-0.1-0.6
		c0,0-0.2,0.2-0.5,0.6c-0.3,0.4-0.4,0.7-0.4,0.8c0,0,0,0.2,0.1,0.7c0.1,0.4,0.1,0.8,0.1,0.9c0,0.1,0,0.1,0,0.2h-3.5
		c-0.2,0-0.4-0.1-0.4-0.3l0.4-2.5v-0.6c-0.1,0.1-0.4,0.4-0.7,0.8c-0.4,0.4-0.5,0.7-0.5,0.8v1.4c-0.1,0.1-0.2,0.2-0.4,0.3
		c-0.2,0.1-0.3,0.1-0.4,0.1h-8c-0.4,0-0.6-0.1-0.8-0.3c0-0.1-0.1-0.1-0.1-0.2c-0.3-2.4-0.5-4.1-0.6-5.3c-0.5,0.6-0.8,1-0.8,1.1
		c0,0.3,0,0.6,0,0.7c-0.1,0.1-0.5,0.2-1,0.4c-0.4,0.2-0.7,0.3-0.9,0.5c-0.6,0.6-1,1.4-1.2,2.4c0.2,0.2,0.4,0.3,0.7,0.4
		c0.1,0.1,0.3,0.1,0.6,0.2c0.9,0.2,1.4,0.4,1.5,0.4c0.1,0,0.2,0,0.2-0.1c0.1-0.2,0.2-0.3,0.2-0.5c0.1-0.2,0.3-0.4,0.4-0.4
		c0.1,0.1,0.1,0.2,0.1,0.4c0.1,0.6,0.1,0.9,0.1,1c0.1,0.3,0.3,0.4,0.5,0.5c0.1,0.1,0.2,0.1,0.3,0.1h8.9c0.3-0.5,0.5-0.7,0.5-0.8
		c0.1,0.2,0.2,0.3,0.3,0.5c0.1,0.2,0.3,0.3,0.4,0.3h3.8c0.3-0.4,0.5-0.7,0.5-0.7c0.2,0.3,0.3,0.6,0.4,0.7h16.7
		c-0.2,0,0.4-0.1,1.8-0.3l3.2,0.3c0.2-0.1,0.4-0.3,0.6-0.7c0.2-0.4,0.3-0.8,0.3-1.1C130.4,40.9,130.3,40.5,130.1,40.1 M91.2,40.6
		c-0.1,0-0.3,0-0.5-0.1c-0.2,0-0.5-0.1-0.9-0.3c-0.2-0.1-0.4-0.2-0.6-0.4c0.2-0.1,0.5-0.3,0.9-0.4c0.4-0.1,0.7-0.3,0.8-0.4
		c0.2-0.3,0.4-0.5,0.5-0.8l0.4,2.3H91.2z M127.2,41c-0.2,0.2-0.4,0.3-0.6,0.3c-0.1,0-0.4-0.1-0.6-0.2c-0.4-0.1-0.6-0.3-0.6-0.5
		c0,0,0.1-0.2,0.2-0.4c0.4-0.6,0.8-0.9,1.1-0.9c0.2,0,0.4,0.1,0.5,0.4c0.2,0.3,0.3,0.5,0.3,0.7C127.5,40.6,127.4,40.8,127.2,41
		 M129.7,41.7h-0.3c-0.2,0-0.5-0.1-0.8-0.2c-0.4-0.2-0.6-0.4-0.6-0.6c0-0.1,0-0.3,0.1-0.5c0.1-0.3,0.3-0.5,0.4-0.5
		c0.2,0,0.4,0.3,0.8,0.7c0.2,0.4,0.4,0.7,0.4,0.9V41.7z"/>
	<path class="st0" d="M38.5,54.6H35v-3.4h-1.1v8.3H35v-3.9h3.5v3.9h1.1v-8.3h-1.1V54.6z M116.1,59.5h1.1v-8.3h-1.1V59.5z
		 M118.2,52.3h2.2v7.2h1.1v-7.2h2.2v-1h-5.6V52.3z M130.6,51.3h-0.1l-1,0l-2,3.6l-2.1-3.6h-1.3l2.7,4.8v3.5h1.1l0-3.5L130.6,51.3z
		 M76.9,51.3l-2.6,8.3h1l0.7-2.4l2.8-0.1l0.9,2.4h1.1L78,51.3H76.9z M76.3,56.2l1.1-3.6l1.1,3.6H76.3z M104.4,51.1
		c-1,0-1.8,0.4-2.4,1.2c-0.6,0.8-0.9,1.9-0.9,3.1c0,1.2,0.3,2.2,0.9,3c0.6,0.8,1.4,1.3,2.4,1.3c1,0,1.9-0.4,2.4-1.3
		c0.6-0.9,0.9-1.9,0.9-3.1c0-1.2-0.3-2.2-0.9-3C106.2,51.5,105.4,51.1,104.4,51.1 M105.9,57.8c-0.4,0.6-0.9,0.9-1.5,0.9
		c-0.6,0-1.1-0.3-1.5-0.9c-0.4-0.6-0.6-1.4-0.6-2.4c0-1,0.2-1.8,0.6-2.4c0.4-0.6,0.9-0.9,1.5-0.9c0.6,0,1.1,0.3,1.5,0.8
		c0.4,0.6,0.6,1.4,0.6,2.4C106.5,56.3,106.3,57.2,105.9,57.8 M85.7,56.7c0,0.7-0.1,1.2-0.4,1.5c-0.3,0.3-0.7,0.5-1.3,0.5
		c-0.3,0-0.6-0.1-0.9-0.2c-0.3-0.1-0.5-0.3-0.6-0.5c-0.1-0.2-0.2-0.7-0.2-1.3v-5.4h-1.1v5.4c0,1.1,0.2,1.8,0.7,2.3
		c0.4,0.5,1.1,0.7,2.1,0.7c0.8,0,1.5-0.2,2-0.7c0.5-0.5,0.8-1.3,0.8-2.3v-5.4h-1V56.7z M87.5,52.3h2.2v7.2h1.1v-7.2h2.2v-1h-5.6
		V52.3z M98.7,54.6h-3.5v-3.4H94v8.3h1.1v-3.9h3.5v3.9h1.1v-8.3h-1.1V54.6z M69.4,54.6h-3.5v-3.4h-1.1v8.3h1.1l0-3.9h3.5v3.9h1.1
		v-8.3h-1.1V54.6z M58.2,52.3h2.2v7.2h1.1v-7.2h2.2v-1h-5.6V52.3z M49.5,51.3l-2.6,8.3h1l0.7-2.4l2.8-0.1l0.9,2.4h1.1l-2.6-8.3H49.5
		z M48.9,56.2l1.1-3.6l1.1,3.6H48.9z M42.6,55.7h3.2v-1h-3.2v-2.4h4v-1h-5.1v8.3h5.2v-1.1h-4.1V55.7z M114.3,54.9
		c0.2-0.4,0.3-0.8,0.3-1.3c0-0.6-0.2-1.1-0.6-1.6c-0.4-0.5-1.1-0.7-1.9-0.7H109v8.3h1.1V56l2.1,0l1.5,3.6h1.1l-1.5-3.8
		C113.7,55.6,114.1,55.3,114.3,54.9 M112,55h-2v-2.7h2.1c0.4,0,0.7,0.1,1,0.3c0.3,0.2,0.4,0.5,0.4,0.9c0,0.4-0.1,0.8-0.4,1
		C112.9,54.9,112.5,55,112,55 M55.3,51.3h-1.2v8.3h4.8v-1.1h-3.6L55.3,51.3z"/>
	<path class="st2" d="M134.4,0c-3.4,14.5-15,25.8-29.5,28.9v0.2H124c6,0,10.8-4.8,10.8-10.8V0H134.4z"/>
	<path class="st2" d="M166.4,30.8h-19.1c-6,0-10.8,4.8-10.8,10.8V60h0.4c3.4-14.4,14.9-25.7,29.4-28.9V30.8z"/>
	<rect x="28" y="51.3" class="st0" width="1.1" height="8.3"/>
	<path class="st0" d="M24.6,51.3h-1.2l-2.6,8.3h1l0.7-2.4l2.8-0.1l0.9,2.4h1.1L24.6,51.3z M22.8,56.2l1.1-3.6l1.1,3.6H22.8z"/>
	<path class="st0" d="M20,55.9c-0.2-0.3-0.6-0.6-1-0.7c0.8-0.3,1.2-0.9,1.2-1.8c0-0.5-0.2-1-0.6-1.4c-0.4-0.4-1-0.6-1.8-0.6h-3.2
		v8.3h3.2c0.9,0,1.5-0.2,2-0.7c0.4-0.4,0.6-1,0.6-1.7C20.5,56.7,20.3,56.3,20,55.9 M15.8,52.3h1.9c0.5,0,0.8,0.1,1.1,0.3
		c0.2,0.2,0.4,0.5,0.4,0.9c0,0.4-0.1,0.7-0.3,0.9c-0.2,0.3-0.7,0.4-1.4,0.4h-1.6V52.3z M18.9,58.1c-0.3,0.2-0.6,0.4-1.1,0.4h-2v-2.8
		h1.9c0.4,0,0.8,0.1,1,0.2c0.2,0.1,0.4,0.3,0.5,0.5c0.1,0.2,0.2,0.5,0.2,0.8C19.3,57.6,19.2,57.9,18.9,58.1"/>
	<path class="st0" d="M5.3,52.5c-0.6-0.8-1.5-1.2-2.6-1.2H0v8.3h3c0.9,0,1.7-0.4,2.3-1.2c0.6-0.8,0.9-1.8,0.9-3
		C6.3,54.2,5.9,53.3,5.3,52.5 M4.5,57.7c-0.4,0.6-1,0.9-1.8,0.9H1.1v-6.3h1.5c0.9,0,1.5,0.3,1.9,0.9c0.4,0.6,0.6,1.3,0.6,2.1
		C5.1,56.3,4.9,57.1,4.5,57.7"/>
	<path class="st0" d="M12,56.7c0,0.7-0.1,1.2-0.4,1.5c-0.3,0.3-0.7,0.5-1.3,0.5c-0.3,0-0.6-0.1-0.9-0.2c-0.3-0.1-0.5-0.3-0.6-0.5
		c-0.1-0.2-0.2-0.7-0.2-1.3v-5.4H7.5v5.4c0,1,0.2,1.8,0.7,2.3c0.5,0.5,1.1,0.7,2.1,0.7c0.8,0,1.5-0.2,2-0.7c0.5-0.5,0.8-1.3,0.8-2.4
		v-5.4h-1V56.7z"/>
</g>
</svg>
